<svg width="480" height="120" viewBox="0 0 480 120" fill="none" xmlns="http://www.w3.org/2000/svg">
<path fill-rule="evenodd" clip-rule="evenodd" d="M184.163 35.0479L180.147 32.0353L181.891 30.1889C181.775 27.2214 183.139 23.6889 185.738 20.7597C188.587 17.5481 192.335 15.7241 195.488 15.7911L197.218 13.96L200.23 17.9768L200.176 18.0344C202.512 21.1348 201.583 26.7238 197.567 31.2515C193.31 36.0472 187.46 37.5428 184.178 35.0326L184.163 35.0479Z" fill="url(#paint0_linear_2100_49663)"/>
<path d="M194.82 28.436C199.384 23.2919 200.278 16.632 196.817 13.5609C193.355 10.4897 186.849 12.1703 182.285 17.3145C177.721 22.4587 176.827 29.1185 180.289 32.1896C183.75 35.2608 190.256 33.5802 194.82 28.436Z" fill="url(#paint1_linear_2100_49663)"/>
<path d="M194.883 28.4929C199.419 23.3802 200.262 16.7209 196.766 13.6188C193.269 10.5167 186.758 12.1466 182.222 17.2593C177.686 22.372 176.843 29.0313 180.339 32.1334C183.836 35.2354 190.347 33.6055 194.883 28.4929Z" fill="#0052FE"/>
<path d="M47.6626 60.3361L92.1359 12.6855H68.4854L21.2525 62.3003V12.6855H0V111.345H21.2525V88.0837L33.6683 75.198L63.2435 111.345H88.1995L50.6711 64.1239L47.6626 60.3321V60.3361Z" fill="#0052FE"/>
<path d="M160.673 56.5323C154.062 46.0446 141.931 39.5576 127.142 39.5576C111.336 39.5576 98.5024 46.9725 92.2443 58.7215C89.541 63.7544 88.0669 69.5988 88.0669 75.9814C88.0669 97.2781 104.56 112.405 127.142 112.405C149.724 112.405 166.092 97.2781 166.092 75.9814C166.092 68.6428 164.144 62.0313 160.673 56.5323V56.5323ZM127.142 95.571C116.843 95.571 108.918 88.2083 108.918 75.9814C108.918 65.4656 114.766 58.5488 122.956 56.8216C124.294 56.5283 125.696 56.3837 127.142 56.3837C128.158 56.3837 129.134 56.448 130.094 56.6046C138.887 57.8739 145.229 64.9474 145.229 75.9814C145.229 88.2083 137.445 95.571 127.146 95.571H127.142Z" fill="#0052FE"/>
<path d="M200.415 40.6094H179.821V111.348H200.415V40.6094Z" fill="#0052FE"/>
<path d="M262.739 39.5576C253.098 39.5576 244.78 42.8513 239.237 48.8925V40.61H219.567V111.349H240.157V76.371C240.157 71.2296 241.265 67.1767 243.237 64.1682C246.226 59.5288 251.207 57.3156 257.196 57.3156C265.289 57.3156 270.358 61.4649 271.387 70.4021C271.519 71.5188 271.584 72.7318 271.584 74.0092V111.345H282.927L292.189 98.4831V70.86C292.189 49.2861 279.509 39.5576 262.739 39.5576V39.5576Z" fill="#0052FE"/>
<path d="M399.239 12.3486L298.207 111.349H329.654L338.884 98.2264L391.162 23.8445L399.239 12.3486Z" fill="url(#paint2_linear_2100_49663)"/>
<path d="M369.459 12.3486L366.23 16.8394L315.527 87.2768L298.207 111.349L399.239 12.3486H369.459Z" fill="url(#paint3_linear_2100_49663)"/>
<path d="M389.238 94.0608L387.932 92.2131C386.844 90.6706 385.072 89.7548 383.193 89.7548H359.426C358.546 89.7548 357.863 90.277 357.538 90.9719L401.469 111.349L389.238 94.0608Z" fill="#F69300"/>
<path d="M357.538 90.9727C357.249 91.5912 357.245 92.3464 357.674 93.0051L362.555 100.432H362.567L369.745 111.35H401.473L357.542 90.9727H357.538Z" fill="url(#paint4_linear_2100_49663)"/>
<path d="M343.254 30.6728L335.731 19.6268L330.774 12.3525H299.733L342.768 33.5247C343.612 32.8941 343.929 31.6649 343.258 30.6728H343.254Z" fill="url(#paint5_linear_2100_49663)"/>
<path d="M299.729 12.3487L312.972 31.4403C313.028 31.5166 313.081 31.5809 313.137 31.6572C314.233 33.0912 315.932 33.9387 317.748 33.9387H341.527C342.013 33.9387 342.427 33.77 342.768 33.5169L299.733 12.3447L299.729 12.3487Z" fill="#F69300"/>
<path d="M442.91 16.1296H434.548V38.0609H428.897V16.1296H420.649V11.9521H442.91V16.1296ZM453.47 11.9521L460.49 30.8085L467.483 11.9521H474.875V38.0609H469.167V30.8085L469.795 18.4503L462.403 38.0609H458.55L451.186 18.4793L451.757 30.8085V38.0609H446.135V11.9521H453.47V11.9521Z" fill="black"/>
<defs>
<linearGradient id="paint0_linear_2100_49663" x1="200.733" y1="18.981" x2="185.67" y2="36.5543" gradientUnits="userSpaceOnUse">
<stop stop-color="#3372F5"/>
<stop offset="0.249995" stop-color="#3372F5"/>
<stop offset="0.505208" stop-color="#80DBFB"/>
<stop offset="0.838547" stop-color="#3372F5"/>
<stop offset="1" stop-color="#3372F5"/>
</linearGradient>
<linearGradient id="paint1_linear_2100_49663" x1="223.034" y1="18.9229" x2="219.005" y2="23.4589" gradientUnits="userSpaceOnUse">
<stop stop-color="#0080D4"/>
<stop offset="0.47" stop-color="white"/>
<stop offset="0.6" stop-color="#F1F8FC"/>
<stop offset="1" stop-color="#007DCC"/>
</linearGradient>
<linearGradient id="paint2_linear_2100_49663" x1="376.541" y1="38.9153" x2="337.398" y2="84.2" gradientUnits="userSpaceOnUse">
<stop stop-color="#FFAC00"/>
<stop offset="1" stop-color="#FE7801"/>
</linearGradient>
<linearGradient id="paint3_linear_2100_49663" x1="298.207" y1="61.8509" x2="399.239" y2="61.8509" gradientUnits="userSpaceOnUse">
<stop stop-color="#FFCE00"/>
<stop offset="1" stop-color="#FFB003"/>
</linearGradient>
<linearGradient id="paint4_linear_2100_49663" x1="357.333" y1="101.163" x2="401.469" y2="101.163" gradientUnits="userSpaceOnUse">
<stop stop-color="#FE8B01"/>
<stop offset="1" stop-color="#FE7801"/>
</linearGradient>
<linearGradient id="paint5_linear_2100_49663" x1="299.729" y1="22.9366" x2="343.62" y2="22.9366" gradientUnits="userSpaceOnUse">
<stop stop-color="#FFCE00"/>
<stop offset="1" stop-color="#FFC101"/>
</linearGradient>
</defs>
</svg>
